<svg width="48" height="48" fill="none" xmlns="http://www.w3.org/2000/svg"><path fill="#fff" d="M0 0h48v48H0z"/><path d="M17.293 32.703c.684-.535 1.997-2.325 2.743-1.568.33.334.222.495 0 1.12 0 0-.272 1.078-.551 1.745-1.019 2.437-2.863 3.955-4.67 5.473-.706.592-2.366 1.517-3.421.97-1.868-.966-.029-2.63.847-3.596.747-.825 1.49-1.616 2.478-2.276a42.208 42.208 0 0 0 2.574-1.867ZM22.233 38.51c.314-1.083 1.037-2.681 1.037-2.681s.368-.953 1.028-1.536c.66-.584 1.115 1.05 1.152 2.005.023.602.068 1.211.11 1.813.047.641.021 1.068.026 1.839.005.778.054 1.48 0 2.126-.066.804-.182 1.708-.443 2.465-.197.57-.272 1.175-.623 1.674-.34.483-1.902 1.116-2.415.695-.84-.69-.843-2.338-.742-3.344.076-.757.15-1.481.307-2.226.2-.951.25-1.751.563-2.83ZM30.901 37.5c-.313-.93-.397-1.867-.46-2.822-.14-2.384.914-2.064 1.301-1.738.202.17.423.306.623.478.584.502 1.028 1.223 1.455 1.88 1.349 2.08 2.591 4.765 2.41 7.287-.03.425-.18 1.073-.393 1.408-.249.39-.517.225-.893.124-.314-.084-.56-.499-.848-.67-.433-.258-.76-.61-1.055-1.063-.532-.82-.883-1.778-1.262-2.684-.303-.724-.627-1.453-.878-2.2ZM34.64 29.03c-.504-.206-1.6-.377-1.514-.92.086-.541 1.103-1.108 1.739-1.295.718-.212 1.463-.152 2.213-.14.731.01 1.464-.01 2.194.019 2.023.082 4.331.148 6.123.99.348.163.486.344.594.642.081.224-.345.41-.556.53-1.07.607-2.511.55-3.76.714-1.192.156-2.517.343-3.723.302-1.19-.04-2.266-.419-3.31-.843ZM38.875 19.99c-1.315.623-2.757 1.08-4.106 1.66l-1.535.657c-.58.269-1.342-.43-1.157-.962.153-.442.503-.829.934-1.153.922-.696 1.739-1.457 2.8-2.05.632-.354 1.27-.684 1.868-1.068.614-.395 1.135-.892 1.825-1.224.796-.383 1.797-.814 2.745-.979.688-.12 1.693.424 1.599.953-.083.463-.233 1.09-.614 1.47-1.096 1.09-2.81 1.964-4.359 2.697ZM33.827 11.808c-.445.798-.923 1.636-1.286 2.5l-.55 1.351c-.364.909-1.032 1.169-1.607.786-.4-.266-.362-1.03-.303-1.499.128-1.03.535-2.054.856-3.01.369-1.1.664-2.47 1.252-3.422a21.812 21.812 0 0 1 1.672-2.312c.265-.322 1.042-.952 1.32-.324.153.347.111.905.12 1.298.013.532-.325 1.428-.428 1.955-.179.922-.611 1.896-1.046 2.677ZM26.409 9.118c.13 1.38.515 3.166.059 4.553-.127.386-.518 1.152-1.056 1.182-.294.016-.47-.165-.719-.294-.98-.51-.788-2.529-.832-3.71-.051-1.362-.108-2.71-.173-4.073-.062-1.279-.305-2.77-.195-4.049.047-.54.27-1.986.93-1.81.371.1.816.115.955.718.086.377.178.749.262 1.126.11.504.36.926.44 1.436.246 1.603.176 3.296.329 4.92ZM19.442 14.76c.386.565.593 1.507.593 1.507s.316 1.26.172 2.027c-.06.319-.295.683-.604.824-.245.112-.719-.13-.926-.255-.683-.412-1.33-1.087-1.801-1.713-1.02-1.356-2.002-2.653-3.228-3.85-.92-.9-2.435-2.892-1.863-4.222.463-1.076 1.353-.574 2.176-.336.962.28 1.863.584 2.52 1.379.827 1.003 1.822 2.105 2.274 3.331.167.454.414.907.687 1.307ZM15.073 23.444c1.02 0 2.183.126 2.183.126s2.163.438 1.871 1.632c-.112.461-1.154 1.12-1.568 1.395-.515.342-.942.632-1.52.887-.684.301-1.543.321-2.284.47-1.374.274-2.73.558-4.134.709-.677.073-1.364.01-2.044.035-.655.024-1.335.177-1.987.067-.728-.122-.973-.062-1.723-.137-.43-.044-1.376-.458-1.7-.73-.563-.471.447-1.037.815-1.3 1.053-.759 2.193-1.524 3.423-2.062 1.6-.701 3.353-.863 5.113-1.021 1.166-.105 2.381-.071 3.555-.071Z" fill="#FF6433"/></svg>