<svg width="202" height="89" viewBox="0 0 202 89" fill="none" xmlns="http://www.w3.org/2000/svg">
<path d="M0 52.7103V39.3098L17.4734 46.0342L0 52.7103Z" fill="#089D7F"/>
<path d="M180.299 44.9838H160.66L175.761 32.0612L180.299 44.9838Z" fill="#84CC16"/>
<path d="M174.439 65.6764L179.391 53.0809L202 72.3013L174.439 65.6764Z" fill="#EEA135"/>
<path d="M158.103 78.4353L167.84 72.3012L171.14 88.25L158.103 78.4353Z" fill="#089D7F"/>
<path d="M148.943 66.167L131.862 73.2826L148.943 79.1714V66.167Z" fill="#EA580C"/>
<path d="M167.838 25.2727L157.936 20.0382L180.298 0L167.838 25.2727Z" fill="#DB2777"/>
<path d="M149.686 18.8114L134.338 23.1462L139.289 6.46127L149.686 18.8114Z" fill="#0EA5E9"/>
<path d="M144.414 38.1902L144.443 38.2371L149.84 46.992L155.365 38.2361L155.395 38.1902H157.677L157.576 38.3445L150.845 48.7224V56.8406H148.887V48.8523L142.257 38.3435L142.16 38.1902H144.414Z" fill="#374151" stroke="#374151" stroke-width="0.2"/>
<path d="M129.674 46.7742H135.055C135.703 46.7742 136.298 46.7075 136.841 46.573V46.5721C137.399 46.4379 137.879 46.2292 138.281 45.9471C138.681 45.649 138.999 45.2769 139.232 44.8299C139.465 44.386 139.583 43.8467 139.583 43.2097C139.583 42.5386 139.455 41.9937 139.208 41.5691L139.207 41.5662C138.974 41.1378 138.651 40.8014 138.235 40.5545L138.233 40.5535C137.882 40.3359 137.478 40.1735 137.021 40.0691L136.82 40.0281C136.293 39.9269 135.738 39.8758 135.158 39.8758H129.674V46.7742ZM141.67 56.8406H139.575L139.546 56.7937C139.347 56.4706 139.205 56.0288 139.118 55.4754V55.4724C139.049 54.9243 138.988 54.3499 138.937 53.7508V53.7478C138.902 53.1501 138.867 52.5692 138.833 52.0056V52.0027C138.816 51.4418 138.773 50.9861 138.705 50.6346V50.6336C138.604 50.1503 138.437 49.7745 138.21 49.5008L138.205 49.4959V49.4949C137.991 49.2009 137.728 48.9818 137.417 48.8357C137.18 48.7243 136.918 48.64 136.631 48.5838L136.335 48.5369C135.943 48.4862 135.533 48.4607 135.106 48.4607H129.674V56.8406H127.716V38.1902H135.106C137.168 38.1902 138.76 38.5755 139.87 39.3611H139.869C140.99 40.1369 141.541 41.4032 141.541 43.1336C141.541 44.308 141.297 45.2532 140.799 45.9588L140.798 45.9578C140.351 46.6131 139.639 47.1682 138.672 47.6316C139.132 47.8189 139.504 48.0742 139.784 48.3982C140.103 48.7671 140.342 49.1887 140.501 49.6619C140.659 50.1316 140.756 50.6268 140.791 51.1472H140.79C140.816 51.4034 140.838 51.6553 140.855 51.9031L140.895 52.6365V52.6385C140.912 53.3359 140.938 53.9135 140.972 54.3719L141.049 54.9978C141.075 55.1844 141.1 55.3494 141.126 55.493H141.125C141.192 55.7748 141.267 55.9942 141.347 56.1541L141.41 56.2547C141.475 56.3487 141.548 56.4238 141.628 56.4803L141.67 56.5096V56.8406Z" fill="#374151" stroke="#374151" stroke-width="0.2"/>
<path d="M115.577 37.7034C117.036 37.7035 118.317 37.9615 119.418 38.4808H119.419C120.534 38.9818 121.459 39.6825 122.193 40.5824C122.944 41.4647 123.503 42.5108 123.868 43.7181L124.003 44.1683C124.296 45.2276 124.441 46.3523 124.441 47.5413C124.441 48.8834 124.251 50.1498 123.868 51.3392C123.503 52.5118 122.954 53.5481 122.222 54.4466L122.221 54.4476C121.487 55.3306 120.57 56.0308 119.472 56.5491C118.37 57.069 117.097 57.3275 115.654 57.3275C114.212 57.3275 112.938 57.069 111.837 56.5491C110.739 56.0308 109.822 55.3307 109.088 54.4476V54.4466C108.355 53.5478 107.806 52.5113 107.44 51.3382V51.3372C107.075 50.1483 106.894 48.8829 106.894 47.5413C106.894 46.1827 107.075 44.9082 107.44 43.7191V43.7181C107.823 42.5285 108.381 41.4916 109.113 40.6097C109.847 39.7096 110.756 39.0004 111.837 38.4818C112.921 37.9618 114.169 37.7034 115.577 37.7034ZM115.629 39.389C114.453 39.389 113.434 39.6164 112.572 40.0687C111.723 40.5231 111.021 41.1296 110.461 41.8861L110.46 41.8851C109.917 42.6254 109.508 43.4849 109.235 44.4642L109.236 44.4652C108.98 45.4474 108.852 46.4731 108.852 47.5413C108.852 48.6266 108.98 49.66 109.236 50.6419H109.235C109.508 51.6214 109.917 52.4806 110.46 53.221L110.677 53.4915C111.197 54.1049 111.828 54.603 112.57 54.9857C113.432 55.4213 114.469 55.6419 115.681 55.6419C116.875 55.6419 117.892 55.4217 118.736 54.9866L119.054 54.8099C119.776 54.381 120.374 53.843 120.849 53.1966V53.1956C121.409 52.4553 121.818 51.5958 122.073 50.6165V50.6146C122.346 49.633 122.483 48.6088 122.483 47.5413C122.483 46.2684 122.321 45.1342 121.997 44.138L121.996 44.1361C121.689 43.1223 121.239 42.2636 120.646 41.5579C120.052 40.8522 119.332 40.3144 118.484 39.9447C117.637 39.575 116.686 39.389 115.629 39.389Z" fill="#374151" stroke="#374151" stroke-width="0.2"/>
<path d="M105.318 38.1902V39.8758H99.4238V56.8406H97.4658V39.8758H91.5713V38.1902H105.318Z" fill="#374151" stroke="#374151" stroke-width="0.2"/>
<path d="M83.3115 37.7034C84.3717 37.7034 85.2976 37.8493 86.0869 38.1449L86.3818 38.2611C87.0556 38.5438 87.6252 38.9138 88.0879 39.3724H88.0869C88.614 39.8777 89.0098 40.4703 89.2734 41.1497C89.5367 41.8281 89.668 42.5494 89.668 43.3128V43.4124H87.7881V43.3128C87.7881 42.6248 87.6612 42.0342 87.4111 41.5384L87.4092 41.5355C87.1745 41.0372 86.8487 40.6319 86.4316 40.3177C86.0114 40.0011 85.5314 39.7671 84.9912 39.6165C84.4486 39.4653 83.8887 39.389 83.3115 39.389C82.4242 39.389 81.6793 39.5161 81.0742 39.7659L81.0732 39.7669C80.481 40.0017 80.0119 40.31 79.6621 40.6898C79.3099 41.0721 79.0679 41.4941 78.9346 41.9564C78.8008 42.4203 78.776 42.8832 78.8594 43.346V43.347C78.9597 43.9271 79.1928 44.3843 79.5537 44.7259C79.9228 45.0751 80.3774 45.3678 80.9189 45.6029L81.3379 45.762C81.766 45.914 82.2234 46.0471 82.71 46.1615C83.3824 46.2982 84.0644 46.4526 84.7539 46.6234H84.7549C85.4474 46.7778 86.1147 46.9666 86.7559 47.1898C87.4198 47.4149 88.0074 47.719 88.5166 48.1019C89.0288 48.4871 89.4341 48.9855 89.7334 49.595C90.0536 50.1945 90.2109 50.9468 90.2109 51.846C90.2109 53.5805 89.6061 54.9356 88.3896 55.8968C87.1766 56.8552 85.4793 57.3275 83.3115 57.3275C82.338 57.3275 81.4323 57.198 80.5947 56.9388C79.7558 56.6962 79.0278 56.3235 78.4131 55.8187L78.4121 55.8177C77.7977 55.2957 77.3145 54.6606 76.9639 53.9134L76.9629 53.9105C76.6289 53.1437 76.4639 52.2493 76.4639 51.2308V51.1312H78.3623L78.3691 51.223C78.4373 52.0335 78.6164 52.7206 78.9023 53.2874C79.206 53.8383 79.5841 54.2873 80.0361 54.6361L80.2158 54.763C80.643 55.0496 81.1222 55.2666 81.6543 55.4134C82.2662 55.565 82.9226 55.6419 83.6221 55.6419C84.4414 55.6419 85.1451 55.5398 85.7354 55.3392C86.3289 55.1375 86.8079 54.87 87.1748 54.5394C87.5425 54.191 87.8082 53.7942 87.9746 53.349L87.9766 53.346C88.1611 52.8972 88.2529 52.423 88.2529 51.9232C88.2529 51.2206 88.0927 50.6621 87.7812 50.2396C87.4638 49.8091 87.0451 49.4605 86.5234 49.1937L86.5205 49.1917C86.0126 48.9065 85.4178 48.6782 84.7354 48.5091H84.7344C84.0636 48.3387 83.3671 48.1763 82.6445 48.0228H82.6416C82.1097 47.8942 81.5828 47.7506 81.0605 47.5931L80.54 47.431C79.8593 47.2061 79.2461 46.9028 78.7031 46.5208L78.7021 46.5199C78.173 46.1352 77.7414 45.6458 77.4072 45.0531L77.4062 45.0521C77.0686 44.4355 76.9034 43.666 76.9033 42.7493C76.9033 42.1033 77.0352 41.4745 77.2988 40.8646L77.2998 40.8616C77.5816 40.2507 77.9869 39.7104 78.5137 39.2406L78.5146 39.2396C79.0602 38.7686 79.7355 38.3952 80.5381 38.1185C81.3436 37.8408 82.2687 37.7034 83.3115 37.7034Z" fill="#374151" stroke="#374151" stroke-width="0.2"/>
<path d="M71.9346 43.3018V56.8408H69.4248V43.3018H71.9346ZM71.9346 38.2598V41.0117H69.4248V38.2598H71.9346Z" fill="#374151" stroke="#374151" stroke-width="0.2"/>
<path d="M67.6562 45.5998L67.5371 45.5773C67.4714 45.5651 67.4079 45.5551 67.3467 45.547L67.1699 45.5285C67.0635 45.5204 66.9432 45.5168 66.8105 45.5168C65.7596 45.5168 64.948 45.8317 64.3633 46.4533L64.249 46.5822C63.65 47.2898 63.3507 48.1053 63.3506 49.0324V56.841H60.8789V43.2394H63.2373V45.2394C63.4741 44.8548 63.8534 44.4216 64.3691 43.9416C65.0765 43.2749 65.8961 42.9397 66.8232 42.9396C66.8699 42.9396 66.9459 42.944 67.0469 42.9523C67.149 42.9608 67.3227 42.9771 67.5664 43.0021L67.6562 43.0119V45.5998Z" fill="#374151" stroke="#374151" stroke-width="0.2"/>
<path d="M59.0479 45.5998L58.9287 45.5773C58.863 45.5651 58.7995 45.5551 58.7383 45.547L58.5615 45.5285C58.4551 45.5204 58.3348 45.5168 58.2021 45.5168C57.1512 45.5168 56.3396 45.8317 55.7549 46.4533L55.6406 46.5822C55.0416 47.2898 54.7423 48.1053 54.7422 49.0324V56.841H52.2705V43.2394H54.6289V45.2394C54.8657 44.8548 55.245 44.4216 55.7607 43.9416C56.4681 43.2749 57.2877 42.9397 58.2148 42.9396C58.2615 42.9396 58.3375 42.944 58.4385 42.9523C58.5406 42.9608 58.7143 42.9771 58.958 43.0021L59.0479 43.0119V45.5998Z" fill="#374151" stroke="#374151" stroke-width="0.2"/>
<path d="M43.5449 42.9396C44.5206 42.9396 45.4662 43.1681 46.3799 43.6252H46.3789C47.2924 44.0737 47.9938 44.6597 48.4766 45.3859H48.4756C48.9381 46.0736 49.2456 46.874 49.3994 47.7853L49.4473 48.0383C49.552 48.6679 49.6035 49.5767 49.6035 50.7599V50.8595H39.6992C39.7537 52.1573 40.071 53.1944 40.6465 53.9787L40.7588 54.1213C41.3426 54.8127 42.2109 55.1642 43.3809 55.1642C44.5434 55.1642 45.462 54.7855 46.1475 54.0334L46.2891 53.8664C46.6085 53.4671 46.8396 53.0148 46.9834 52.509L47.0039 52.4367H49.4268L49.4141 52.548C49.3607 52.9934 49.1977 53.4805 48.9297 54.008L48.8086 54.2365C48.4765 54.8442 48.1002 55.3452 47.6787 55.7375C46.9747 56.4179 46.104 56.8753 45.0703 57.1125C44.5141 57.2481 43.8876 57.3166 43.1914 57.3166C41.4812 57.3165 40.0285 56.7008 38.8398 55.4718V55.4709C37.6475 54.2294 37.0577 52.5003 37.0576 50.297C37.0576 48.1258 37.6522 46.3523 38.8496 44.9875C40.0481 43.6215 41.6164 42.9397 43.5449 42.9396ZM43.4062 45.1037C42.3899 45.1037 41.5413 45.4681 40.8535 46.1984H40.8525C40.1857 46.8987 39.8221 47.7874 39.7627 48.8703H47.0557C46.9586 47.9544 46.752 47.2264 46.4375 46.6808V46.6799C45.8358 45.6324 44.8333 45.1037 43.4062 45.1037Z" fill="#374151" stroke="#374151" stroke-width="0.2"/>
<path d="M38.8857 38.2598V40.6494H32.6367V56.8408H29.8867V40.6494H23.6377V38.2598H38.8857Z" fill="#374151" stroke="#374151" stroke-width="0.2"/>
</svg>
