<svg xmlns="http://www.w3.org/2000/svg" viewBox="0 0 566.93 152.34"><defs><style>.cls-1{fill:#e36e26;}.cls-2{fill:#fff;}.cls-3{fill:#42405d;}</style></defs><title>logo</title><g id="Calque_3" data-name="Calque 3"><rect class="cls-1" x="27.55" y="21.96" width="72.97" height="72.97" rx="3.42"/><path class="cls-2" d="M48.5,75a4.74,4.74,0,0,1,3.35-1.14A4.24,4.24,0,0,1,55,75a4.51,4.51,0,0,1,0,6,4.26,4.26,0,0,1-3.1,1.14,4.74,4.74,0,0,1-3.35-1.14,4.33,4.33,0,0,1,0-6Zm-.67-32h7.73V70.29H47.83Z"/><path class="cls-2" d="M60.84,75a4.74,4.74,0,0,1,3.35-1.14A4.24,4.24,0,0,1,67.3,75a4.51,4.51,0,0,1,0,6,4.26,4.26,0,0,1-3.1,1.14,4.74,4.74,0,0,1-3.35-1.14,4.33,4.33,0,0,1,0-6Zm-.67-42.32H67.9V70.29H60.17Z"/><path class="cls-2" d="M73.18,75a4.74,4.74,0,0,1,3.35-1.14A4.24,4.24,0,0,1,79.64,75a4.51,4.51,0,0,1,0,6,4.26,4.26,0,0,1-3.1,1.14,4.74,4.74,0,0,1-3.35-1.14,4.33,4.33,0,0,1,0-6Zm-.67-20.86h7.73V70.29H72.51Z"/><path class="cls-3" d="M127.65,74.71,112.84,36.6h11.21l9.18,25.28,9.23-25.28h11.17L138.86,74.71Z"/><path class="cls-3" d="M175.64,35.64h10.82V73.76H175.64Z"/><path class="cls-3" d="M240.07,68.49a4.56,4.56,0,0,1-.49.58c-.22.25-.69.67-1.4,1.3A17.34,17.34,0,0,1,235.87,72a13.6,13.6,0,0,1-3.24,1.33,14.83,14.83,0,0,1-4.16.59q-6.72,0-12.17-5.67a19.16,19.16,0,0,1,0-26.77q5.44-5.67,12.17-5.67a14.56,14.56,0,0,1,6.29,1.37,13.19,13.19,0,0,1,4.1,2.65l1.21,1.41V36.6h10.79v35a18.29,18.29,0,0,1-5.92,13.83A20.78,20.78,0,0,1,230.07,91a24.08,24.08,0,0,1-6.45-.86,23,23,0,0,1-5.12-2A28.39,28.39,0,0,1,215,85.8a12.76,12.76,0,0,1-2.15-2l-.74-.88,6.79-6.22c.27.35.66.82,1.2,1.4a15.78,15.78,0,0,0,9.63,3.65,10.45,10.45,0,0,0,7.6-2.72,9.82,9.82,0,0,0,2.79-7.38Zm-15.45-6.91a8.36,8.36,0,0,0,6.25,2.66,8.89,8.89,0,0,0,6.45-2.74,9.33,9.33,0,0,0,0-13.23,8.9,8.9,0,0,0-6.45-2.71,8.38,8.38,0,0,0-6.25,2.64,9.16,9.16,0,0,0-2.56,6.68A9.28,9.28,0,0,0,224.62,61.58Z"/><path class="cls-3" d="M277.67,35.64H288.5V73.76H277.67Z"/><path class="cls-3" d="M338.91,46.73a13.54,13.54,0,0,0-3.6-.41,8.85,8.85,0,0,0-6.74,2.61q-2.47,2.63-2.48,7.52V74.71H315.31V36.6h10.78v4.67c.31-.36.76-.82,1.33-1.39a15.82,15.82,0,0,1,3.77-2.26,13.84,13.84,0,0,1,6.11-1.4h1.61Z"/><path class="cls-3" d="M361.3,35.64h10.82V73.76H361.3Z"/><path class="cls-3" d="M420.53,47.87a7.67,7.67,0,0,0-.76-.83,9.24,9.24,0,0,0-2.2-1.39,7.55,7.55,0,0,0-3.44-.86,5.91,5.91,0,0,0-3.52.94,2.63,2.63,0,0,0-1.29,2.14,2.86,2.86,0,0,0,1.84,2.47,24,24,0,0,0,4.47,1.77A54.8,54.8,0,0,1,421,54a10.61,10.61,0,0,1,4.53,3.49,9.59,9.59,0,0,1,1.84,6A10.7,10.7,0,0,1,423.17,72q-4.16,3.46-11.43,3.46a23.93,23.93,0,0,1-5.94-.72A17.82,17.82,0,0,1,401.23,73a28.49,28.49,0,0,1-3.06-2,12.52,12.52,0,0,1-1.9-1.69l-.55-.8,6-5.8a9.09,9.09,0,0,0,1,1.15,13,13,0,0,0,2.87,1.9,9.31,9.31,0,0,0,4.53,1.2A6.54,6.54,0,0,0,414,66a2.9,2.9,0,0,0-.53-5.13A21.2,21.2,0,0,0,409,59a48.27,48.27,0,0,1-5.33-1.88,11.12,11.12,0,0,1-4.48-3.41,9.17,9.17,0,0,1-1.83-5.85q0-4.59,4.39-8.31a16.15,16.15,0,0,1,10.81-3.72A18.6,18.6,0,0,1,420,37.32a14.9,14.9,0,0,1,4.75,2.88l1.37,1.48Z"/><path class="cls-3" d="M462.55,65.37v9.34H451.72V20.27h10.83V52.16l14-15.56h12.39L474.15,53l15.59,21.75h-12L467.31,59.94Z"/><path class="cls-3" d="M532.58,47.87a10.6,10.6,0,0,0-.76-.83,9.59,9.59,0,0,0-2.21-1.39,7.52,7.52,0,0,0-3.44-.86,5.91,5.91,0,0,0-3.52.94,2.63,2.63,0,0,0-1.29,2.14,2.86,2.86,0,0,0,1.84,2.47,24.32,24.32,0,0,0,4.47,1.77A54.8,54.8,0,0,1,533,54a10.61,10.61,0,0,1,4.53,3.49,9.59,9.59,0,0,1,1.84,6A10.72,10.72,0,0,1,535.22,72q-4.17,3.46-11.44,3.46a23.79,23.79,0,0,1-5.93-.72A17.76,17.76,0,0,1,513.27,73a28.49,28.49,0,0,1-3.06-2,12.52,12.52,0,0,1-1.9-1.69l-.55-.8,6-5.8a9.09,9.09,0,0,0,1,1.15,13.23,13.23,0,0,0,2.87,1.9,9.31,9.31,0,0,0,4.53,1.2,6.54,6.54,0,0,0,3.89-1,2.9,2.9,0,0,0-.53-5.13A21.2,21.2,0,0,0,521,59a48.27,48.27,0,0,1-5.33-1.88,11.12,11.12,0,0,1-4.48-3.41,9.17,9.17,0,0,1-1.83-5.85q0-4.59,4.39-8.31a16.15,16.15,0,0,1,10.81-3.72,18.6,18.6,0,0,1,7.48,1.48,14.9,14.9,0,0,1,4.75,2.88l1.37,1.48Z"/><path class="cls-1" d="M362.24,80.4a6.63,6.63,0,0,1,4.69-1.59,5.94,5.94,0,0,1,4.35,1.59,6.32,6.32,0,0,1,0,8.47,6,6,0,0,1-4.33,1.59,6.63,6.63,0,0,1-4.69-1.59,6.07,6.07,0,0,1,0-8.47Z"/><path class="cls-1" d="M278.61,80.4a6.65,6.65,0,0,1,4.69-1.59,6,6,0,0,1,4.36,1.59,6.32,6.32,0,0,1,0,8.47,6,6,0,0,1-4.34,1.59,6.65,6.65,0,0,1-4.69-1.59,6.07,6.07,0,0,1,0-8.47Z"/><path class="cls-1" d="M176.58,80.4a6.63,6.63,0,0,1,4.69-1.59,5.94,5.94,0,0,1,4.35,1.59,6.33,6.33,0,0,1,0,8.47,6,6,0,0,1-4.34,1.59,6.63,6.63,0,0,1-4.69-1.59,6.07,6.07,0,0,1,0-8.47Z"/><path class="cls-3" d="M32.41,118l.2-.28a8.35,8.35,0,0,1,.62-.66,6.76,6.76,0,0,1,1.05-.82,5.84,5.84,0,0,1,1.45-.64,6.71,6.71,0,0,1,6.61,1.59,6.92,6.92,0,0,1,1.82,5v9.57H41.8v-9.57a4.71,4.71,0,0,0-1.22-3.4,4.15,4.15,0,0,0-3.14-1.28,4.79,4.79,0,0,0-3.59,1.5,5.36,5.36,0,0,0-1.44,3.85v8.9H30.07v-16.1h2.34Z"/><path class="cls-3" d="M79.35,121.5a3.9,3.9,0,0,0-1.13-2.9,4,4,0,0,0-2.9-1.11,5.74,5.74,0,0,0-4,1.77l-.51.57-1.5-1.51a3.89,3.89,0,0,1,.27-.34,9.57,9.57,0,0,1,.75-.72,10.54,10.54,0,0,1,1.22-.92,7,7,0,0,1,1.68-.73,7.26,7.26,0,0,1,2.12-.32,6.22,6.22,0,0,1,4.56,1.78,6,6,0,0,1,1.82,4.43v10.24H79.35v-2.18l-.2.27c-.1.11-.31.32-.63.61a7.17,7.17,0,0,1-1,.77,6.21,6.21,0,0,1-1.46.59,6.57,6.57,0,0,1-1.88.27,6,6,0,0,1-4.06-1.43,4.25,4.25,0,0,1-1.64-3.26,4.47,4.47,0,0,1,1.21-3.25,6,6,0,0,1,3.49-1.61Zm-1.47,6.9a5.26,5.26,0,0,0,1.47-3.87v-1l-5.54,1c-2,.38-3,1.33-3,2.85a2.22,2.22,0,0,0,.9,1.8,3.85,3.85,0,0,0,2.46.71A5,5,0,0,0,77.88,128.4Z"/><path class="cls-3" d="M108.66,110.26h2.18v5.38h3.52v2.17h-3.52v9.57c0,1.68.73,2.52,2.18,2.51a4.3,4.3,0,0,0,1.07-.14,8.21,8.21,0,0,0,.81-.22l.3-.13v2.17a4.84,4.84,0,0,1-2.28.5,4.31,4.31,0,0,1-3.25-1.22,4.82,4.82,0,0,1-1.17-3.47v-9.57h-3v-2.17h1.86c.9,0,1.34-.56,1.34-1.68Z"/><path class="cls-3" d="M151.07,129.56l-.2.27a5.9,5.9,0,0,1-.62.61,7.08,7.08,0,0,1-1,.77,6.3,6.3,0,0,1-1.47.59,6.57,6.57,0,0,1-1.88.27,6.22,6.22,0,0,1-4.68-2,7.08,7.08,0,0,1-1.85-5.09v-9.38h2.34V125a4.88,4.88,0,0,0,1.31,3.49,4.24,4.24,0,0,0,3.2,1.38,4.57,4.57,0,0,0,3.46-1.51,5.43,5.43,0,0,0,1.42-3.85v-8.89h2.36v16.1h-2.36Z"/><path class="cls-3" d="M187.45,117.65h-1a4.9,4.9,0,0,0-3.55,1.44,5,5,0,0,0-1.48,3.75v8.9h-2.34v-16.1h2.34v2.17l.2-.27a5.19,5.19,0,0,1,.62-.6,6.67,6.67,0,0,1,1.06-.77,6.28,6.28,0,0,1,1.51-.61,7.07,7.07,0,0,1,2-.27h.68Z"/><path class="cls-3" d="M220.46,121.5a3.86,3.86,0,0,0-1.13-2.9,3.94,3.94,0,0,0-2.89-1.11,5.13,5.13,0,0,0-2.41.58,5.2,5.2,0,0,0-1.63,1.19l-.5.57-1.51-1.51.27-.34c.11-.13.37-.37.75-.72a9.84,9.84,0,0,1,1.23-.92,6.76,6.76,0,0,1,1.67-.73,7.38,7.38,0,0,1,2.13-.32,6.2,6.2,0,0,1,4.55,1.78,6,6,0,0,1,1.82,4.43v10.24h-2.35v-2.18l-.2.27c-.1.11-.3.32-.62.61a7.76,7.76,0,0,1-1,.77,6.13,6.13,0,0,1-1.47.59,6.56,6.56,0,0,1-1.87.27,6,6,0,0,1-4.06-1.43,4.22,4.22,0,0,1-1.64-3.26,4.47,4.47,0,0,1,1.2-3.25,6.06,6.06,0,0,1,3.49-1.61ZM219,128.4a5.29,5.29,0,0,0,1.46-3.87v-1l-5.53,1q-3,.57-3,2.85a2.21,2.21,0,0,0,.89,1.8,3.9,3.9,0,0,0,2.47.71A5,5,0,0,0,219,128.4Z"/><path class="cls-3" d="M250.77,131.74h-2.34V108.25h2.34Z"/><path class="cls-3" d="M305.41,118c0-.07.11-.16.21-.28a8.35,8.35,0,0,1,.62-.66,6.25,6.25,0,0,1,1-.82,6.74,6.74,0,0,1,3.34-.93,6.3,6.3,0,0,1,4.73,1.88,7,7,0,0,1,1.81,5v9.57h-2.35v-9.57a4.71,4.71,0,0,0-1.22-3.4,4.19,4.19,0,0,0-3.15-1.28,4.79,4.79,0,0,0-3.59,1.5,5.36,5.36,0,0,0-1.44,3.85v8.9h-2.34V108.25h2.34Z"/><path class="cls-3" d="M352.36,121.5a3.86,3.86,0,0,0-1.13-2.9,3.94,3.94,0,0,0-2.89-1.11,5.74,5.74,0,0,0-4,1.77l-.5.57-1.51-1.51.27-.34c.11-.13.37-.37.75-.72a9.84,9.84,0,0,1,1.23-.92,6.76,6.76,0,0,1,1.67-.73,7.38,7.38,0,0,1,2.13-.32,6.2,6.2,0,0,1,4.55,1.78,6,6,0,0,1,1.82,4.43v10.24h-2.35v-2.18l-.2.27c-.1.11-.3.32-.62.61a7.76,7.76,0,0,1-1,.77,6.13,6.13,0,0,1-1.47.59,6.56,6.56,0,0,1-1.87.27,6,6,0,0,1-4.06-1.43,4.22,4.22,0,0,1-1.64-3.26,4.47,4.47,0,0,1,1.2-3.25,6.06,6.06,0,0,1,3.49-1.61Zm-1.46,6.9a5.33,5.33,0,0,0,1.46-3.87v-1l-5.53,1q-3,.57-3,2.85a2.21,2.21,0,0,0,.89,1.8,3.9,3.9,0,0,0,2.47.71A5,5,0,0,0,350.9,128.4Z"/><path class="cls-3" d="M391.4,117.81l-9.72,11.75h10.05v2.18H378.82v-2.18l9.74-11.75h-9.41v-2.17H391.4Z"/><path class="cls-3" d="M425.6,121.5a3.86,3.86,0,0,0-1.13-2.9,4,4,0,0,0-2.9-1.11,5.74,5.74,0,0,0-4,1.77l-.51.57-1.5-1.51a3.89,3.89,0,0,1,.27-.34,9.57,9.57,0,0,1,.75-.72,9.07,9.07,0,0,1,1.22-.92,6.76,6.76,0,0,1,1.67-.73,7.38,7.38,0,0,1,2.13-.32,6.2,6.2,0,0,1,4.56,1.78,6,6,0,0,1,1.81,4.43v10.24H425.6v-2.18l-.21.27a7.74,7.74,0,0,1-1.66,1.38,6.13,6.13,0,0,1-1.47.59,6.51,6.51,0,0,1-1.87.27,6,6,0,0,1-4.05-1.43,4.23,4.23,0,0,1-1.65-3.26,4.43,4.43,0,0,1,1.21-3.25,6,6,0,0,1,3.49-1.61Zm-1.47,6.9a5.3,5.3,0,0,0,1.47-3.87v-1l-5.54,1q-3,.57-3,2.85a2.23,2.23,0,0,0,.89,1.8,3.9,3.9,0,0,0,2.47.71A5,5,0,0,0,424.13,128.4Z"/><path class="cls-3" d="M461.79,117.65h-1a4.9,4.9,0,0,0-3.55,1.44,5,5,0,0,0-1.48,3.75v8.9H453.4v-16.1h2.34v2.17l.2-.27a7.6,7.6,0,0,1,.62-.6,6.67,6.67,0,0,1,1.06-.77,6.28,6.28,0,0,1,1.51-.61,7.12,7.12,0,0,1,2-.27h.68Z"/><path class="cls-3" d="M497.31,108.25h2.34v23.49h-2.34v-2.52l-.23.3a6.45,6.45,0,0,1-.7.69,7.16,7.16,0,0,1-1.17.88,6.65,6.65,0,0,1-1.59.68,6.8,6.8,0,0,1-2,.3,7.23,7.23,0,0,1-5.4-2.47,8.73,8.73,0,0,1,0-11.83,7.21,7.21,0,0,1,5.4-2.48,6.62,6.62,0,0,1,2,.3,7.38,7.38,0,0,1,1.61.71,7.1,7.1,0,0,1,1.15.83,6,6,0,0,1,.72.72l.23.31Zm-1.76,11.1a5.29,5.29,0,0,0-3.94-1.86,4.91,4.91,0,0,0-3.72,1.81,6.63,6.63,0,0,0,0,8.78,5,5,0,0,0,3.72,1.81,5.32,5.32,0,0,0,3.94-1.86,6.23,6.23,0,0,0,0-8.68Z"/><path class="cls-3" d="M533.34,119.16a4.15,4.15,0,0,0-.39-.47,4.83,4.83,0,0,0-1.17-.74,4.29,4.29,0,0,0-2-.46,3.25,3.25,0,0,0-2.17.7,2.1,2.1,0,0,0-.84,1.64,1.78,1.78,0,0,0,.9,1.55,7.8,7.8,0,0,0,2.18,1c.85.23,1.7.5,2.55.8a5.18,5.18,0,0,1,2.19,1.47,3.84,3.84,0,0,1,.89,2.62,4.39,4.39,0,0,1-1.58,3.46,6.33,6.33,0,0,1-4.28,1.39,7.5,7.5,0,0,1-2.15-.3,6.84,6.84,0,0,1-1.66-.7,8,8,0,0,1-1.15-.83,5.2,5.2,0,0,1-.71-.71l-.21-.31,1.69-1.68c0,.07.1.15.18.26a6.89,6.89,0,0,0,.51.56,6.79,6.79,0,0,0,.87.72,4.64,4.64,0,0,0,1.18.56,4.25,4.25,0,0,0,1.45.25,4,4,0,0,0,2.62-.75,2.43,2.43,0,0,0,.91-1.92,1.92,1.92,0,0,0-.91-1.63,7.37,7.37,0,0,0-2.19-1c-.84-.25-1.69-.52-2.54-.82a5.39,5.39,0,0,1-2.19-1.43,3.55,3.55,0,0,1-.91-2.51,4.11,4.11,0,0,1,1.54-3.18,5.59,5.59,0,0,1,3.83-1.36,7.45,7.45,0,0,1,1.83.22,5.91,5.91,0,0,1,1.46.54,8.75,8.75,0,0,1,1,.66,6.05,6.05,0,0,1,.65.53l.25.25Z"/></g></svg>